<svg xmlns="http://www.w3.org/2000/svg" xmlns:xlink="http://www.w3.org/1999/xlink" viewBox="0 0 2475 1650"><defs><style>.a{fill:url(#a);}.b,.d{fill:#ff6990;}.c{fill:#82d3ba;}.d{opacity:0.8;}.e{fill:#120e34;}.f{fill:#4982ad;}.g{fill:#f5fdff;}.h{fill:#91b3fa;}.i{fill:#79b5e2;}.j{fill:#b6e8b3;}.k{fill:#7d97f4;}.l{fill:#14ed07;}.m{fill:#ef1616;}.n{fill:#fff;}.o{fill:url(#b);}.p{fill:url(#c);}.q{fill:url(#d);}.r{fill:#1570b5;}.s{fill:url(#e);}.t{fill:url(#f);}.u{fill:url(#g);}.v{fill:url(#h);}.w{fill:url(#i);}.x{fill:#6c6a99;}.y{fill:url(#j);}.z{fill:url(#k);}.aa{fill:url(#l);}.ab{fill:url(#m);}.ac{fill:url(#n);}.ad{fill:url(#o);}.ae{fill:url(#p);}.af{fill:url(#q);}.ag{fill:url(#r);}.ah{fill:url(#s);}.ai{fill:url(#t);}.aj{fill:#38617f;}.ak{fill:url(#u);}.al{fill:url(#v);}.am{fill:url(#w);}.an{fill:url(#x);}.ao{fill:url(#y);}.ap{opacity:0.71;}.aq{fill:#1b4e9b;}.aq,.ar{fill-rule:evenodd;}.ar{fill:#009846;}</style><linearGradient id="a" x1="226.32" y1="873" x2="2205.58" y2="873" gradientUnits="userSpaceOnUse"><stop offset="0" stop-color="#dae3fe"/><stop offset="1" stop-color="#e9effd"/></linearGradient><linearGradient id="b" x1="1881.31" y1="1032.08" x2="1804.57" y2="1032.08" gradientUnits="userSpaceOnUse"><stop offset="0" stop-color="#ff928e"/><stop offset="1" stop-color="#feb3b1"/></linearGradient><linearGradient id="c" x1="-725.88" y1="1307.24" x2="-724.24" y2="1487.73" gradientTransform="matrix(-1, 0, 0, 1, 1142.3, 0)" gradientUnits="userSpaceOnUse"><stop offset="0" stop-color="#09005d"/><stop offset="1" stop-color="#1a0f91"/></linearGradient><linearGradient id="d" x1="-763.47" y1="1424.51" x2="-743.03" y2="1424.51" gradientTransform="matrix(-1, 0, 0, 1, 1142.3, 0)" xlink:href="#b"/><linearGradient id="e" x1="-826.35" y1="1308.16" x2="-824.71" y2="1488.64" xlink:href="#c"/><linearGradient id="f" x1="-837.13" y1="1423.47" x2="-819.48" y2="1423.47" gradientTransform="matrix(-1, 0, 0, 1, 1142.3, 0)" xlink:href="#b"/><linearGradient id="g" x1="1948.07" y1="972.42" x2="1875.86" y2="1161.68" gradientUnits="userSpaceOnUse"><stop offset="0" stop-color="#fe7062"/><stop offset="1" stop-color="#ff928e"/></linearGradient><linearGradient id="h" x1="2008.28" y1="995.39" x2="1936.07" y2="1184.65" xlink:href="#g"/><linearGradient id="i" x1="1945.94" y1="1055.04" x2="2057.84" y2="1025.66" xlink:href="#b"/><linearGradient id="j" x1="1900.95" y1="968.55" x2="1901.85" y2="992.1" xlink:href="#b"/><linearGradient id="k" x1="1805.37" y1="908.28" x2="1806.27" y2="942.81" xlink:href="#b"/><linearGradient id="l" x1="1908.25" y1="852.06" x2="1919.91" y2="927.86" xlink:href="#b"/><linearGradient id="m" x1="-6425.3" y1="-2350.76" x2="-6401.08" y2="-2400.99" gradientTransform="matrix(-0.75, -0.67, -0.67, 0.75, -4512.94, -1476.32)" xlink:href="#b"/><linearGradient id="n" x1="-6443.73" y1="-2359.65" x2="-6419.51" y2="-2409.88" gradientTransform="matrix(-0.75, -0.67, -0.67, 0.75, -4512.94, -1476.32)" xlink:href="#b"/><linearGradient id="o" x1="-3422.35" y1="624.95" x2="-3364.64" y2="508.8" gradientTransform="matrix(-0.98, -0.21, -0.21, 0.98, -2354.09, -266.75)" xlink:href="#b"/><linearGradient id="p" x1="-3004.56" y1="1481.26" x2="-2970.44" y2="1481.26" gradientTransform="matrix(-1, 0, 0, 1, -2401.43, 0)" xlink:href="#c"/><linearGradient id="q" x1="-3148.74" y1="1615.81" x2="-3099.64" y2="1041.94" gradientTransform="matrix(-1, 0, 0, 1, -2401.43, 0)" xlink:href="#b"/><linearGradient id="r" x1="-3163.08" y1="1475.03" x2="-3107.87" y2="1475.03" gradientTransform="matrix(-1, 0, 0, 1, -2401.43, 0)" xlink:href="#c"/><linearGradient id="s" x1="580.47" y1="1275.8" x2="660.09" y2="1461.35" xlink:href="#b"/><linearGradient id="t" x1="786.83" y1="988.37" x2="668.53" y2="1155.82" xlink:href="#g"/><linearGradient id="u" x1="748.36" y1="913.95" x2="735.94" y2="1008.91" xlink:href="#b"/><linearGradient id="v" x1="738.67" y1="848.3" x2="756.2" y2="935.96" xlink:href="#b"/><linearGradient id="w" x1="-3505.39" y1="583.69" x2="-3447.68" y2="467.54" gradientTransform="matrix(-0.98, -0.21, -0.21, 0.98, -2354.09, -266.75)" xlink:href="#b"/><linearGradient id="x" x1="891.77" y1="814.53" x2="906.38" y2="932.14" xlink:href="#b"/><linearGradient id="y" x1="559.17" y1="1102.29" x2="722.97" y2="1102.29" xlink:href="#b"/></defs><path class="a" d="M2143,739.47q-3.27-3.48-6.7-6.8c-14.68-14.33-30.9-27.17-42.79-44-28.18-39.83-26.95-93.83-19.92-142.59s18.61-98.78,7.15-146.64-46.27-88.46-89.33-110.19-93.56-25.54-140.42-15.08c-47.11,10.51-90.29,34.56-136.37,49.14s-99.43,18.47-139.56-9.05c-20.25-13.89-35.74-34.89-57.68-45.71-27.82-13.72-60.93-8.54-90.24,1.36-38.89,13.14-74.88,33.87-110.6,54.47-61.26,35.34-122,79-189.45,99.79-66.58,20.53-134.78,30.45-203.23,41.83-97.33,16.17-205.32-25.31-299.51-46.56-65.2-14.71-132.64-25.31-199.49-18.81-28.64,2.78-69.55,6.54-94.17,23.38-20.63,14.11-40.31,41.86-52.61,63.68-44.39,78.73-35.42,162.74-3.24,243.59,26.36,66.23,60.83,131.93,62,203.51.58,33.86-3.47,73-10,106.08-6.93,35-33.78,71.94-49.8,103.66-11.26,22.3-22.55,44.68-30.66,68.38-26,75.87-41.55,203.85,49.66,239.57,42,16.44,78.07,6,119.76.34,95.56-13.06,181.92,19.5,275.48,28.73,129.65,12.79,262.1-3.69,384.68-49.24,45.89-17,94-35.11,137.66-57.56,38.2-19.65,83-16.87,125.41-13.84,99.27,7.08,195.16,37.21,291.38,61.25a2389.32,2389.32,0,0,0,358.56,61c25.69,2.38,52.23,4.25,76.69-4.18,35-12.08,60.9-44.09,75.15-79.23,24.63-60.72,30.08-123.09,32-187.4,2.07-71.08,19.48-140.55,28.2-210.85C2212.42,909.54,2205.73,806,2143,739.47Z"/><path class="b" d="M2163.3,1411.65a126.63,126.63,0,0,0,16.9-1.91l-41.53-143.82,123.63,88.82a124.38,124.38,0,1,0-99,56.91Z"/><path class="b" d="M2199.66,1440.33a124.3,124.3,0,0,0,82.11-55l-123.63-88.82Z"/><rect class="b" x="1897.26" y="581.65" width="54.23" height="161.33"/><rect class="c" x="1975.2" y="548.26" width="54.23" height="194.72"/><rect class="b" x="2053.15" y="597.03" width="54.23" height="145.96"/><rect class="c" x="2131.1" y="508.26" width="54.23" height="234.72"/><rect class="c" x="2209.05" y="451.07" width="54.23" height="291.91"/><path class="c" d="M77.42,925A17,17,0,0,1,85.57,927l45.72-45.72A17,17,0,1,1,164.8,877a17.32,17.32,0,0,1-.53,4.23l41.88,41.89a17,17,0,0,1,18.42-.12l87.73-87.73a17,17,0,1,1,29.64-.63l96.92,96.92a17,17,0,0,1,20.95-.59l121-121a17,17,0,1,1,6.92,7.17L465.79,939a16.86,16.86,0,0,1,.95,5.61,17,17,0,1,1-33.43-4.58l-98.46-98.46a17,17,0,0,1-15.17.33l-88.61,88.61a17,17,0,1,1-31.33.22l-40.88-40.88a17,17,0,0,1-22.11.06L92.54,934.14A17,17,0,1,1,77.42,925Z"/><path class="d" d="M692.73,469l26.17,13.65,12.2-23.4a57.86,57.86,0,0,0,15.63,1.4l7.8,25.23,28.2-8.72L774.93,452a58,58,0,0,0,12.49-10.39l23.39,12.2,13.65-26.16-23.39-12.2a58,58,0,0,0,1.37-16.19l25.15-8-9-28.11-25.14,8a58.57,58.57,0,0,0-10.1-12l12.2-23.39L769.39,322l-12.2,23.39a58.67,58.67,0,0,0-15.63-1.4l-7.8-25.22-28.2,8.72,7.8,25.23a58.22,58.22,0,0,0-12.49,10.38l-23.39-12.2L663.83,377.1l23.39,12.2a58,58,0,0,0-1.37,16.19l-25.15,8,9,28.11,25.14-8a58.36,58.36,0,0,0,10.1,12Zm11.57-87.45a44.94,44.94,0,1,1,19.06,60.63A45,45,0,0,1,704.3,381.57Z"/><path class="d" d="M555.33,943.93l5.4,19.61,17.53-4.83a40.06,40.06,0,0,0,6.64,8.55L575.84,983l17.64,10.13,9.06-15.78a40,40,0,0,0,11.11,1.42l4.83,17.53,19.61-5.4-4.83-17.53a40,40,0,0,0,8.81-6.92l15.87,8.92,10-17.74L652,948.76A40.17,40.17,0,0,0,653.36,938l17.53-4.83-5.4-19.62L648,918.4a40.25,40.25,0,0,0-6.64-8.54l9.06-15.78L632.74,884l-9.06,15.78a40,40,0,0,0-11.11-1.42l-4.83-17.54-19.62,5.41L593,903.71a40,40,0,0,0-8.82,6.91l-15.86-8.91-10,17.74,15.87,8.91a40.07,40.07,0,0,0-1.32,10.74Zm49.55-35.24a31,31,0,1,1-21.64,38.1A31,31,0,0,1,604.88,908.69Z"/><path class="c" d="M1197.75,524.24a188.68,188.68,0,0,0,84.44-32q4-2.76,7.85-5.7,5.88-4.49,11.3-9.35h0c69.25-62,83.86-166.82,31.18-245.94-.54-.82-1.09-1.64-1.65-2.45l0,0a189.2,189.2,0,0,0-263.43-48.67q-4.46,3-8.66,6.32a189.41,189.41,0,0,0-44.54,250.25c1.44,2.32,2.95,4.61,4.51,6.88A189.45,189.45,0,0,0,1197.75,524.24ZM1065.46,362.36A112.5,112.5,0,0,1,1102.55,250q4.08-3.42,8.54-6.5a112.38,112.38,0,0,1,156.32,28.87l0,0c.88,1.28,1.73,2.56,2.55,3.87a112.2,112.2,0,0,1,12.14,93.36l-.1.31c-.12.4-.25.79-.38,1.18s-.23.73-.36,1.09a112.93,112.93,0,0,1-11.67,24.4l-.78,1.18c-.25.39-.5.77-.76,1.15l-.47.68a110.69,110.69,0,0,1-10.54,13.16,109,109,0,0,1-10.78,10.11q-3.71,3.06-7.75,5.84a112.41,112.41,0,0,1-156.34-28.89c-1.56-2.28-3-4.59-4.41-6.94A111.56,111.56,0,0,1,1065.46,362.36Z"/><path class="e" d="M1282.58,180.29A190,190,0,0,0,1170,146.75v77.09a112.27,112.27,0,0,1,97.41,48.56l63.45-43.65A188.67,188.67,0,0,0,1282.58,180.29Z"/><path class="b" d="M1267.41,272.4l0,0c.88,1.28,1.73,2.56,2.55,3.87a112.2,112.2,0,0,1,12.14,93.36l-.1.31c-.12.4-.25.79-.38,1.18s-.23.73-.36,1.09a112.93,112.93,0,0,1-11.67,24.4l-.78,1.18c-.25.39-.5.77-.76,1.15l-.47.68a110.69,110.69,0,0,1-10.54,13.16,112.56,112.56,0,0,1-10.78,10.11L1290,486.5q5.87-4.49,11.31-9.33h0c69.25-62,83.86-166.82,31.18-245.94-.54-.82-1.09-1.64-1.65-2.45l0,0Z"/><path class="c" d="M2111.62,309.16l-8.51,0c.06-41.64.06-82.93,0-122.7l8.51,0C2111.68,226.21,2111.68,267.5,2111.62,309.16Z"/><path class="c" d="M2105.41,252.07c-19.64,0-39.48,0-59.4,0l0-8.51c41.61.06,82.9.06,122.7,0l0,8.51C2148,252.05,2126.81,252.07,2105.41,252.07Z"/><path class="b" d="M279.92,1260.26h-8.51c.07-41.62.06-82.9,0-122.71l8.51,0C280,1177.34,280,1218.64,279.92,1260.26Z"/><path class="b" d="M273.63,1203.17c-19.61,0-39.42,0-59.31,0v-8.51c41.65.06,82.93.06,122.71,0v8.51C316.27,1203.15,295.07,1203.17,273.63,1203.17Z"/><path class="b" d="M340.92,571.26h-8.51c.07-41.62.06-82.9,0-122.71l8.51,0C341,488.34,341,529.64,340.92,571.26Z"/><path class="b" d="M334.63,514.17c-19.61,0-39.42,0-59.31,0v-8.51c41.65.06,82.93.06,122.71,0v8.51C377.27,514.15,356.07,514.17,334.63,514.17Z"/><path class="b" d="M1545.92,510.26h-8.51c.07-41.62.06-82.9,0-122.71l8.51,0C1546,427.34,1546,468.64,1545.92,510.26Z"/><path class="b" d="M1539.63,453.17c-19.61,0-39.42,0-59.31,0v-8.51c41.65.06,82.93.06,122.71,0v8.51C1582.27,453.15,1561.07,453.17,1539.63,453.17Z"/><polygon class="f" points="1151.54 1180.82 1124.57 1422.76 1437.54 1422.76 1396.78 1180.82 1151.54 1180.82"/><path class="f" d="M1505,1472.26H1046.89c-12.44,0-21.78-8.86-19.38-18.37l5.88-23.25c1.77-7,9.46-12.12,18.59-12.41l441.59-13.78c9.54-.29,18,4.77,20.07,12l10.6,37C1527,1463.13,1517.6,1472.26,1505,1472.26Z"/><path class="f" d="M758.92,658.92V1213a84.05,84.05,0,0,0,81.89,84c202.38,5.22,723.65,17.88,916.31,15A61.85,61.85,0,0,0,1818,1252c3.72-128.73,9.75-438.27-12.58-582a63.65,63.65,0,0,0-60.86-53.87c-169.57-5.43-733.36-22.65-925.92-18.33A61.11,61.11,0,0,0,758.92,658.92Z"/><path class="g" d="M793.68,656.22v526.44a48.71,48.71,0,0,0,48,48.69l887.74,13.27a47.4,47.4,0,0,0,48.11-47.21l1.8-521.73a34.68,34.68,0,0,0-33.83-34.79L832.16,618.67A37.57,37.57,0,0,0,793.68,656.22Z"/><path class="h" d="M1785.6,1266.08h0L793.66,1246a1.37,1.37,0,1,1,.05-2.74l991.91,20.08a1.37,1.37,0,0,1,0,2.74Z"/><path class="h" d="M1293.48,1424.41a1.38,1.38,0,0,1,0-2.75l18.92-.27h0a1.38,1.38,0,0,1,0,2.75l-18.92.27Z"/><path class="h" d="M1044.47,1459.33l-.22,0a1.37,1.37,0,0,1-1.14-1.57l2.7-16.91a18.73,18.73,0,0,1,18.27-15.81l200.7-2.94a1.44,1.44,0,0,1,1.39,1.36,1.37,1.37,0,0,1-1.35,1.39l-200.7,2.94a16,16,0,0,0-15.6,13.49l-2.7,16.91A1.36,1.36,0,0,1,1044.47,1459.33Z"/><path class="i" d="M956.21,896.54H835.75c-16.46,0-29.57,11.61-28.76,25.47l13.7,236.12c.76,12.94,13.41,23.1,28.77,23.1H956.21c15.91,0,28.8-10.87,28.8-24.29V920.82C985,907.41,972.12,896.54,956.21,896.54Z"/><path class="i" d="M1212.29,896.54H1033.66c-14.43,0-26.13,10.87-26.13,24.28v236.12c0,13.42,11.7,24.29,26.13,24.29h178.63c14.44,0,26.14-10.87,26.14-24.29V920.82C1238.43,907.41,1226.73,896.54,1212.29,896.54Z"/><path class="i" d="M930.56,657.22V771.66l-117,4.09a109.37,109.37,0,1,0,117-118.53Z"/><path class="i" d="M1229.83,736.58H1065.64a8.92,8.92,0,0,1-8.89-8.89h0a8.92,8.92,0,0,1,8.89-8.89h164.19a8.92,8.92,0,0,1,8.89,8.89h0A8.92,8.92,0,0,1,1229.83,736.58Z"/><path class="i" d="M1229.83,695.63H1065.64a8.92,8.92,0,0,1-8.89-8.89h0a8.92,8.92,0,0,1,8.89-8.89h164.19a8.92,8.92,0,0,1,8.89,8.89h0A8.92,8.92,0,0,1,1229.83,695.63Z"/><rect class="i" x="1056.75" y="758.02" width="181.97" height="17.78" rx="8.89"/><path class="i" d="M1229.83,819.68H1065.64a8.92,8.92,0,0,1-8.89-8.89h0a8.92,8.92,0,0,1,8.89-8.89h164.19a8.92,8.92,0,0,1,8.89,8.89h0A8.92,8.92,0,0,1,1229.83,819.68Z"/><path class="i" d="M1229.83,859.85H1065.64a8.92,8.92,0,0,1-8.89-8.9h0a8.92,8.92,0,0,1,8.89-8.89h164.19a8.92,8.92,0,0,1,8.89,8.89h0A8.92,8.92,0,0,1,1229.83,859.85Z"/><path class="j" d="M1028.34,1048.53v89.64c0,14,12.23,25.38,27.3,25.38h132.08c15.49,0,28-11.67,28-26.06v-135c0-11.36-15.08-16.72-23.23-8.25L1167,1020.78c-9.83,10.21-26.46,11.65-38.14,3.3l-2.44-1.75a25.51,25.51,0,0,0-30.29.69l-14,11a39.15,39.15,0,0,1-38.74,5.3h0C1036.31,1036.47,1028.34,1041.32,1028.34,1048.53Z"/><rect class="k" x="1308.74" y="1088.1" width="22.14" height="93.13"/><rect class="k" x="1345.72" y="1120.11" width="22.14" height="61.12"/><rect class="k" x="1382.71" y="1041.01" width="22.14" height="140.23"/><rect class="k" x="1419.7" y="1147.55" width="22.14" height="33.69"/><rect class="k" x="1456.69" y="1059.75" width="22.14" height="121.48"/><rect class="k" x="1493.67" y="1080.79" width="22.14" height="100.45"/><rect class="k" x="1530.66" y="1103.65" width="22.14" height="77.58"/><rect class="k" x="1567.65" y="1012.66" width="22.14" height="168.58"/><rect class="k" x="1604.64" y="1030.49" width="22.14" height="150.75"/><rect class="k" x="1641.63" y="1057.47" width="22.14" height="123.77"/><rect class="k" x="1678.61" y="1150.67" width="22.14" height="30.56"/><rect class="k" x="1715.6" y="1091.3" width="22.14" height="89.93"/><path class="i" d="M1366.66,1012.66h-97.4a7.22,7.22,0,1,0,0,14.4h97.4a7.22,7.22,0,1,0,0-14.4Z"/><path class="i" d="M1366.66,990.12h-97.4a7.22,7.22,0,1,0,0,14.4h97.4a7.22,7.22,0,1,0,0-14.4Z"/><path class="i" d="M1542.37,1012.66H1445a7.22,7.22,0,1,0,0,14.4h97.4a7.22,7.22,0,1,0,0-14.4Z"/><path class="i" d="M1542.37,990.12H1445a7.22,7.22,0,1,0,0,14.4h97.4a7.22,7.22,0,1,0,0-14.4Z"/><rect class="l" x="1308.74" y="1114.88" width="22.14" height="66.35"/><rect class="m" x="1345.72" y="1137.69" width="22.14" height="43.55"/><rect class="l" x="1382.71" y="1081.33" width="22.14" height="99.91"/><rect class="m" x="1419.7" y="1157.23" width="22.14" height="24"/><rect class="l" x="1456.69" y="1076.83" width="22.14" height="104.4"/><rect class="m" x="1493.67" y="1109.67" width="22.14" height="71.57"/><rect class="m" x="1530.66" y="1125.96" width="22.14" height="55.28"/><rect class="l" x="1567.65" y="1061.13" width="22.14" height="120.11"/><rect class="l" x="1604.64" y="1048.83" width="22.14" height="132.41"/><rect class="m" x="1641.63" y="1093.05" width="22.14" height="88.18"/><rect class="m" x="1678.61" y="1159.46" width="22.14" height="21.77"/><rect class="l" x="1715.6" y="1117.16" width="22.14" height="64.07"/><path class="l" d="M922.35,764.66V658.22A109.87,109.87,0,0,0,814.75,766.4Z"/><rect class="n" x="803.43" y="1024.06" width="8.81" height="140.55"/><rect class="n" x="818.15" y="1072.37" width="8.81" height="92.24"/><rect class="l" x="832.88" y="952.99" width="8.81" height="211.62"/><rect class="m" x="847.6" y="1113.77" width="8.81" height="50.84"/><rect class="l" x="862.32" y="981.28" width="8.81" height="183.33"/><rect class="m" x="877.05" y="1013.02" width="8.81" height="151.59"/><rect class="m" x="891.77" y="1047.53" width="8.81" height="117.08"/><rect class="l" x="906.49" y="910.21" width="8.81" height="254.4"/><rect class="m" x="921.22" y="937.12" width="8.81" height="227.49"/><rect class="m" x="935.94" y="977.83" width="8.81" height="186.78"/><rect class="m" x="950.66" y="1118.49" width="8.81" height="46.12"/><rect class="l" x="965.39" y="1028.89" width="8.81" height="135.72"/><path class="o" d="M1804.57,1016.36s28.5,65.78,46,57,30.7-81.13,30.7-81.13S1826.49,979.09,1804.57,1016.36Z"/><path class="p" d="M1903.81,1424.57s2.39,13.49,3.56,26.84a9.21,9.21,0,0,1-8.81,10c-17.78.74-55.82,2.18-69.47,1.57a3,3,0,0,1-2.63-4.1h0a6.68,6.68,0,0,1,3.42-3.61l62.84-28.88Z"/><path class="q" d="M1905.77,1416.64l-1.92,16.14s-11,5.12-18.52-.65l4.56-18Z"/><path class="r" d="M1904.33,1113.27c.83,4.22,4.44,210.29-17.59,302.64a3.12,3.12,0,0,0,1.84,3.64,54.65,54.65,0,0,0,17.94,3.65,5.4,5.4,0,0,0,5.35-3.88c6.3-21.42,36.47-128.77,40.41-231.32,4.4-114.59,0-3.9,0-3.9l-2.58-70.84Z"/><path class="s" d="M1976.1,1431.61s3.79,6.81,7.46,24.9a5.62,5.62,0,0,1-4.94,6.73c-5.87.57-14.91,1.32-22.15,1.27a5.6,5.6,0,0,1-5.54-6.25c.8-6.6,3.3-17.44,11-25.89Z"/><path class="t" d="M1979.43,1410.85l-4.48,24.4s-4.42,3.3-13.17.91l2.14-26.26Z"/><path class="r" d="M1991.51,1119.6c18,108.72-3.9,268.72-11.3,300a4.88,4.88,0,0,1-3.94,3.71,32.67,32.67,0,0,1-14.09-.56,4.47,4.47,0,0,1-3.22-4.12c-1-25.32.79-180.74-16-242.17a14,14,0,0,0-5.38-7.7L1905,1145.63l-2.49-37.44Z"/><path class="u" d="M1874.73,917.69c65.78-6.58,115.55,10.07,115.55,10.07,16.09,93.9,2.81,202.21,2.81,202.21-41.8,11-88.94-6.7-88.94-6.7-7-39.25-39.36-149.71-39.36-149.71C1838.41,970.29,1858.16,919.35,1874.73,917.69Z"/><path class="v" d="M1969.57,980l20.71-52.28s50.43,34.26,58.72,77.71c-9.53.7-26.87,3.18-43.84,11.75C2001.43,996.7,1969.57,980,1969.57,980Z"/><path class="w" d="M1921.12,1029.23s56.61,32,75.72,4.67c4-5.67,9.25-13.11,8.27-18.48,17-8.57,30-9.25,39.5-9.95a59.93,59.93,0,0,1-6.51,41.1c-33.47,61.22-124.48-3.38-124.48-3.38Z"/><path class="x" d="M1927.92,1069.71,1897,961.8a3.15,3.15,0,0,0-2.66-2.27c-5.6-.65-21.82-2.49-40.56-4.07-22.56-1.91-48.76-3.45-64.42-2.14a3.16,3.16,0,0,0-2.58,4.54c8.91,18,45.53,91.29,63.87,115.29a3.16,3.16,0,0,0,2.55,1.25l71.69-.66A3.17,3.17,0,0,0,1927.92,1069.71Z"/><path class="x" d="M1850.6,946.1l-22.4-3.73a1.61,1.61,0,0,0-1.8,2.09l2.22,6.72a1.62,1.62,0,0,0,1.32,1.09l21.55,2.88a1.6,1.6,0,0,0,1.78-2l-1.37-5.87A1.62,1.62,0,0,0,1850.6,946.1Z"/><path class="x" d="M1867.37,965.07l-1.84-9.61a2.22,2.22,0,0,0-2-1.79l-45.25-4.6a2.22,2.22,0,0,0-2.38,2.73l2.87,12a2.23,2.23,0,0,0,2,1.7l44.22,2.23A2.22,2.22,0,0,0,1867.37,965.07Z"/><path class="y" d="M1920.45,1043.64s4.31-17.7,2.57-24-5.1-14.35-16.31-12.56-24.44,6.52-24.44,6.52.66,8.18,9.19,5.54l-5.29,4.09s.76,6.55,8,3l-4.92,5.42s3.09,5.38,8.39,1.93S1905.43,1045.77,1920.45,1043.64Z"/><path class="z" d="M1805.56,1017.3s-13-12.71-14.91-18.95-3.31-14.87,7.15-19.31,24.17-7.46,24.17-7.46,3.78,7.29-4.85,9.58l6.65.66s2.84,5.95-5.12,6.81l7,2s.24,6.2-6.08,6.09S1819.42,1011.13,1805.56,1017.3Z"/><path class="aa" d="M1924.83,873.84,1942,923.51a1.8,1.8,0,0,1-.82,2.16c-4.68,2.59-21.55,10.07-41.88-2.82a8.45,8.45,0,0,1-3.89-6l-5.56-43Z"/><path class="ab" d="M1887.45,827.83s-18.87,35.51-16.45,49.85,25.8,13.32,46.21,1.67L1931.48,841Z"/><path d="M1916.31,860.52a1.47,1.47,0,0,1-.64-2.14c1.51-2.31,4.35-7,5.25-11.15,0,0,3.39-2.17-8.63-5.05s-30-7.34-33.72-17.57c-3.67-10,6-35.07,21.38-15.08a1.47,1.47,0,0,0,2.32,0c2.53-3.29,9.16-10.11,18.38-6,8.62,3.87,9.59,10.18,9.48,13.37a1.45,1.45,0,0,0,1.72,1.49c4.36-.83,14.82-1.55,19.71,9.19,4,8.84,1.41,13.84-1,16.29a1.46,1.46,0,0,0,.63,2.42c2.86.88,6.56,3.31,6.19,10-.51,9.29-10.89,8.47-13.84,8a1.47,1.47,0,0,0-1.3.45c-2.53,2.81-14,14.71-26.3,16.15a1.48,1.48,0,0,1-1.55-2l5.35-15.54a1.47,1.47,0,0,0-.8-1.83Z"/><path class="ac" d="M1914.16,862.72s13.43-9.21,14.42-1.45-12.1,11.24-18.58,8.35Z"/><path d="M735.07,871.91s-23.92,8-39.42,42.16c-4.24,9.34-27.25,11-29.63,30.17a22,22,0,0,1-18.41,19.34c-24.55,3.76-62.39,16.52-68.45,59.15-4.62,32.54,12,44.88,29.38,49.15,12.79,3.13,21.28,15.57,18.7,28.48-2.48,12.38,1.22,26.7,22.67,38,48.07,25.36,96.07-60.1,96.07-60.1l9.84-149.21Z"/><path class="ad" d="M889.55,867.28s-59.88,94.72-131.09,113c0,0,13.88,39.52,24.59,44,0,0,87.6-73.09,110.11-143.59Z"/><path class="ae" d="M603.09,1473.08l-1.94,16a6.6,6.6,0,0,1-5.78,5.77,102.37,102.37,0,0,1-21.36.33,5.65,5.65,0,0,1-4.74-7.32c2-6.16,5.54-15.4,10.71-20.85h17.7A5.46,5.46,0,0,1,603.09,1473.08Z"/><path class="af" d="M741.71,1286.18l3,17.57s-10,101.33-11.78,141.86a31.79,31.79,0,0,0,4.7,18.05l17.4,28.25-44.21-26.09-.88-5.39,7.23-10L707.68,1337a34.76,34.76,0,0,1,4-19.26l9.14-17.18Z"/><path class="ag" d="M757.92,1496H743.81a8.47,8.47,0,0,1-6.74-3.31c-4.4-5.71-13.51-16.86-17.87-17.15-5.86-.39-5.11,20.46-5.11,20.46H710.8l-4.17-25.91a15.35,15.35,0,0,1,8-16h0s1.34,9.91,8.61,14.3,29.59,20.09,29.59,20.09a20.17,20.17,0,0,1,5.73.15C763.06,1489.41,762.44,1496,757.92,1496Z"/><path class="ah" d="M681.16,1294.53s-58.61,111.16-67.92,136.54-12.58,46.56-12.71,48.56c-.19,3.13-4.09,6.14-14.83,6.14-5.54,0-8.26-2.22-9.59-4.37a6.3,6.3,0,0,1-.24-6.07c3.39-6.86,14.15-28.78,18.14-38.73,4.75-11.87,15-65.67,20.6-84.38s11.95-39,36.39-57.69C651,1294.53,667.78,1278.09,681.16,1294.53Z"/><path class="ai" d="M718.18,1112.37c15.11-64-23.18-100.28-23.18-100.28,24.16-23.2,68.19-33.75,68.19-33.75s42,30.71,37,54.75c-2.92,14.09-29.53,84.4-29.53,84.4S746.08,1129.13,718.18,1112.37Z"/><path class="aj" d="M684.66,1144.09c6.15-18.54,33.52-31.72,33.52-31.72,27.9,16.76,52.51,5.12,52.51,5.12s5.52,21.09,1.71,40.69-27.71,145.57-27.71,145.57c-37.65,7.63-95.55-7.67-95.55-7.67C673.12,1253.5,678.51,1162.62,684.66,1144.09Z"/><path class="ak" d="M735.72,936l-12.29,55.2c-1.17,4.87,3.26,4.07,8.18,3.14,8-1.51,18.43-4.64,21.89-10.91a5.72,5.72,0,0,0,.63-2.08l5.28-38.28a6.88,6.88,0,0,0-4-7.23l-10.19-4.51A6.88,6.88,0,0,0,735.72,936Z"/><path class="al" d="M759.27,885.68s13.08,8.86,18.7,31.41-3.51,30.65-12.88,30.15-22.94-3.39-34.71-19.57S742.12,874.86,759.27,885.68Z"/><path d="M742.25,918.57s-4.8-32.32,22-27.38l5.42,5.65s13.14-14.79-1.4-26-34.7-8.32-45.86,12-15.21,34.66-5.86,47.31S733,932,733,932s-4.29-10.95-.73-15.65,8.15,2.74,8.15,2.74Z"/><path class="am" d="M889.14,886.78c.18,2-7.09,3.3-9.4-5,.64-3.61,1.77-19.45,4.54-21.91,14.77-13.1,41.1-27.84,41.1-27.84a5.39,5.39,0,0,1-.92,7.46l-13.14,8.87c1.37,4.54,3.37,8.56,3.6,13.74A15.38,15.38,0,0,1,911,872.82c-2.62,3-6.14,6.85-9.31,9.78A15.22,15.22,0,0,1,889.14,886.78Z"/><path class="an" d="M896.2,880.29l-1.85-.76c.27-.65,6.57-16,9.61-19.14,1.18-1.23,1.75-2.29,1.69-3.15a2.33,2.33,0,0,0-.74-1.46l-10.72,5.74-4.71,7.37-1.68-1.07,5-7.82,12.38-6.62.52.42a4.61,4.61,0,0,1,1.95,3.32c.09,1.46-.64,3-2.24,4.65C903.1,864.18,898,876,896.2,880.29Z"/><path class="ao" d="M695,1012.09s-68,139.7-92.68,151.91c0,0-25,2.61-40.33,7.24a4,4,0,0,0,.16,7.7c10.66,2.91,28.33,5.34,44.52-3.45,0,0-8.7,13-3.63,18.11,0,0,11.6-13.76,16-18.11,3.82-3.83,73.5-79.79,102.8-125.61,2.36-3.7.72-14.7-.92-18.77C717.08,1021.73,708.69,1006.76,695,1012.09Z"/><path class="h" d="M746.53,873.7c-5.76,1.89-10.91,5.34-15.58,9.16a66.38,66.38,0,0,0-20.28,29.51,65.74,65.74,0,0,0-2.27,8.75,84.38,84.38,0,0,1-2,9,19.94,19.94,0,0,1-4.63,8.27,29.51,29.51,0,0,1-7.65,5.48c-2.72,1.47-5.5,2.73-8.11,4.2a33.2,33.2,0,0,0-16,20.44c-.83,2.89-1.46,5.91-2.56,8.87a18,18,0,0,1-5.32,8,22.92,22.92,0,0,1-8.52,4.25,86.37,86.37,0,0,1-9.06,1.89,74.7,74.7,0,0,0-17.37,4.86c-11,4.65-21.1,12.44-26.52,23.18a30,30,0,0,0-3.18,17.28,25.86,25.86,0,0,0,7.78,15.63,19.36,19.36,0,0,0,7.63,4.39,20.17,20.17,0,0,0,8.85.41c5.86-.91,11.49-4.67,13.7-10.33l.47.17c-2.16,5.92-7.93,10-14,11a21.27,21.27,0,0,1-9.29-.25,20.51,20.51,0,0,1-8.19-4.49A27.06,27.06,0,0,1,596,1037a31.52,31.52,0,0,1,3.13-18.24,45.25,45.25,0,0,1,11.49-14.56,62.07,62.07,0,0,1,15.8-9.66,76.51,76.51,0,0,1,17.79-5.06,84.47,84.47,0,0,0,8.84-1.88,20.75,20.75,0,0,0,7.74-3.87,16.19,16.19,0,0,0,4.72-7.08c1-2.76,1.68-5.73,2.54-8.7a35.09,35.09,0,0,1,17.05-21.56c2.71-1.52,5.5-2.78,8.16-4.19a28,28,0,0,0,7.2-5.09,18.4,18.4,0,0,0,4.3-7.51,84.78,84.78,0,0,0,2-8.83,65.49,65.49,0,0,1,23.59-38.64c4.83-3.76,10.09-7.14,16-8.94Z"/><path class="h" d="M714.09,915.51A88.43,88.43,0,0,1,713,927.3a32.78,32.78,0,0,1-4,11.32,23.11,23.11,0,0,1-3.84,4.76,41.75,41.75,0,0,1-4.75,3.72A94.24,94.24,0,0,0,691,954c-5.82,5-10.7,11.24-12.23,18.71-1.75,7.39-1.27,15.59-4.57,23.35a25.16,25.16,0,0,1-7.71,9.67,39.76,39.76,0,0,1-10.72,5.78c-7.63,2.75-15.53,3.72-23.09,5.44s-15,4.55-20.32,10.1c-2.57,2.73-4.84,6.12-4.89,9.89s1.72,7.44,3.44,10.93l-.44.23c-1.94-3.37-4-7-4.14-11.16a12.88,12.88,0,0,1,1.38-6,22.86,22.86,0,0,1,3.41-5c5.5-6.11,13.34-9.29,21-11.26s15.55-3,22.72-5.68,13.8-7.23,16.7-14.09,2.73-14.92,4.61-22.8a31.42,31.42,0,0,1,5-11.14,42.77,42.77,0,0,1,8.34-8.75c6.07-5.28,14-7.93,18.1-14.47a31.49,31.49,0,0,0,4.28-10.64,106.89,106.89,0,0,0,1.75-11.61Z"/><circle class="n" cx="1589.39" cy="902.08" r="3.92" transform="translate(442.89 2325.26) rotate(-80.72)"/><circle class="e" cx="1589.39" cy="902.08" r="2.78"/><rect class="c" x="1429.9" y="740.98" width="4.39" height="135.73"/><rect class="c" x="1422.76" y="768.56" width="18.67" height="80.58"/><rect class="c" x="1618.65" y="757.33" width="4.39" height="131.74"/><rect class="c" x="1611.5" y="777.63" width="18.67" height="86.64"/><rect class="c" x="1650.1" y="738.89" width="4.39" height="139.9"/><rect class="c" x="1642.96" y="760.45" width="18.67" height="66.67"/><rect class="c" x="1492.81" y="729.56" width="4.39" height="135.73"/><rect class="c" x="1485.67" y="757.13" width="18.67" height="54.21"/><rect class="c" x="1681.56" y="722.22" width="4.39" height="132.71"/><rect class="c" x="1674.42" y="749.18" width="18.67" height="83.87"/><rect class="c" x="1713.02" y="710.55" width="4.39" height="99.79"/><rect class="c" x="1705.88" y="728.92" width="18.67" height="52.79"/><rect class="c" x="1744.48" y="696.77" width="4.39" height="107.01"/><rect class="c" x="1737.34" y="713.1" width="18.67" height="79.72"/><rect class="b" x="1461.36" y="797.42" width="4.39" height="86.79"/><rect class="b" x="1454.21" y="819.89" width="18.67" height="41.04"/><rect class="b" x="1524.27" y="805.14" width="4.39" height="76.13"/><rect class="b" x="1517.13" y="816.95" width="18.67" height="41.04"/><rect class="b" x="1555.73" y="800.8" width="4.39" height="86.79"/><rect class="b" x="1548.59" y="845.99" width="18.67" height="18.32"/><rect class="b" x="1587.19" y="829.22" width="4.39" height="53.72"/><rect class="b" x="1580.05" y="838.79" width="18.67" height="16.3"/><rect class="c" x="1340.9" y="766.98" width="4.39" height="135.73"/><rect class="c" x="1333.76" y="794.56" width="18.67" height="80.58"/><rect class="c" x="1403.81" y="755.56" width="4.39" height="135.73"/><rect class="c" x="1396.67" y="783.13" width="18.67" height="54.21"/><rect class="b" x="1372.36" y="823.42" width="4.39" height="86.79"/><rect class="b" x="1365.21" y="845.89" width="18.67" height="41.04"/><g class="ap"><path class="aq" d="M332,93c-15.81,27.32-31.63,54.85-50.61,80.14-18,24-39.23,45.23-62,64.75-12.45,10.4-25.65,19.89-40.08,27.36-8.59,4.45-18.2,9-28,9.9-25,1.76-48.6-2.34-73-7.23l-.08-39.55c12.33-1.13,24.85-.38,37.17.69,11.4,1,25.55,4.73,36.79,1.51,15.48-4.82,29.83-13.88,43.35-22.59a663.86,663.86,0,0,0,55.23-40.29q26.12-20.9,50.76-43.54C312.09,114.37,323.19,104.46,332,93Z"/><path class="ar" d="M332,196.74c-15.74,25.49-31.55,51.28-50.81,74.34-17.86,21.4-39,39.41-61.94,55.09-18.45,12.16-44.62,26.91-67.86,23.73C125.36,346,102,336,78.28,325l-.09-39.57c12.69,2.18,25.09,6.07,37.3,10.07,11.19,3.66,24.73,10.66,36.78,10,15-1.4,29.66-7.51,43.23-13.67,19.15-8.68,37.43-19.26,55.07-30.67a613.78,613.78,0,0,0,50.78-36.58c10.64-8.53,21.86-17.33,30.63-27.86Z"/><path class="aq" d="M332,300.47c-15.66,23.7-31.45,47.78-51,68.53a217.84,217.84,0,0,1-61.84,45.44c-19.5,9.38-46.11,17.9-67.66,10.2-26.89-10-50.05-25.89-73.23-42.48q0-19.8-.08-39.6c12.91,5.55,25.22,12.53,37.42,19.45,11.05,6.28,23.93,16.41,36.76,18.45,14.3,1.87,29.34-1.14,43.12-4.74,19-5,37.31-12.4,54.91-21.05a418.26,418.26,0,0,0,49.86-29c11-7.46,22.68-15.33,31.72-25.23Z"/></g></svg>